# xmcd
#
# Track frame offsets: 
#        150
#        18540
#        41670
#        60777
#        80262
#        104462
#        123567
#        149482
#        168655
#        188585
#        212432
#        234020
#        256202
#
# Disc length: 3674 seconds
#
# Revision: 0
# Processed by: cddbd v1.5PL3 Copyright (c) Steve Scherf et al.
# Submitted via: ExactAudioCopy v0.95a3
#
DISCID=a50e580d
DTITLE=Various Artist - Gift For Lovers III
DYEAR=1991
DGENRE=R&B
TTITLE0=Randy Crawford/Almaz
TTITLE1=The Isley Brothers/May I?
TTITLE2=James Ingram/How Do You Keep The Music Playing?
TTITLE3=Sherrick/Baby I'm For Real
TTITLE4=Maze feat. Frankie Beverly/Can't Get Over You
TTITLE5=Jeff Lorber/Back In Life
TTITLE6=Michael Cooper/My Baby's House
TTITLE7=Ray Charles feat. Peggy Scott/Let's Get Back To Where We Left 
TTITLE7=Off
TTITLE8=Larry Graham/Just Be My Lady
TTITLE9=Patti Austin/Summer Is The Coldest Time Of Year
TTITLE10=Gwen Guthrie/What Would I Do Without You
TTITLE11=James Ingram/When Way The Last Time Music Made You Cry
TTITLE12=Take 6/I L.O.V.E You
EXTD=
EXTT0=
EXTT1=
EXTT2=
EXTT3=
EXTT4=
EXTT5=
EXTT6=
EXTT7=
EXTT8=
EXTT9=
EXTT10=
EXTT11=
EXTT12=
PLAYORDER=
